<?xml version="1.0"?><svg width="640" height="480" xmlns="http://www.w3.org/2000/svg">
 <title>Arrow left</title>
 <metadata id="metadata7">image/svg+xml</metadata>
 <g>
  <title>Layer 1</title>
  <rect id="rect3653" width="0" height="27.202072" x="578.73834" y="298.1684" rx="249.48199" ry="27.202072" stroke-dashoffset="0" stroke-miterlimit="4" stroke-width="0.873544" fill-rule="nonzero" fill="white"/>
  <path d="m459.469543,277.559113c-0.028015,-110.607513 -0.04425,-120.529907 -0.199188,-121.530106c-0.636047,-4.106003 -1.597931,-7.083206 -3.350677,-10.370209c-4.897736,-9.185303 -14.484192,-15.779999 -25.47113,-17.522095c-2.8013,-0.444199 1.171539,-0.422501 -77.382751,-0.423508c-58.999084,-0.000793 -73.793579,-0.024689 -73.754761,-0.119293c0.026794,-0.065109 0.480713,-1.482208 1.008728,-3.149002c0.528076,-1.666794 3.285797,-10.283905 6.128326,-19.149094c3.223145,-10.052307 5.234833,-16.4823 5.345245,-17.084808c0.213501,-1.165802 0.155762,-3.598099 -0.112305,-4.725891c-1.118561,-4.706604 -4.796844,-8.507401 -9.563293,-9.881805c-3.781586,-1.0905 -7.918579,-0.689407 -11.301178,1.095703c-0.520416,0.274689 -30.647995,19.144394 -66.950195,41.9328c-36.302231,22.7883 -66.643524,41.828598 -67.425125,42.3116c-0.781601,0.483002 -1.430161,0.909088 -1.441208,0.946991c-0.011078,0.037903 30.41597,19.182709 67.615692,42.543991c47.383148,29.7565 67.950714,42.621704 68.687256,42.964722c2.116577,0.985382 4.006714,1.396088 6.425415,1.396088c3.917786,0 7.285156,-1.277802 10.069733,-3.821106c2.139801,-1.954285 3.497162,-4.305084 3.995392,-6.919495c0.247864,-1.300385 0.157318,-3.567505 -0.196625,-4.924591c-0.236237,-0.905701 -9.529449,-30.303497 -10.598083,-33.525513c-0.250488,-0.75528 -0.741364,-2.268188 -1.090851,-3.362091c-0.349518,-1.093811 -0.654785,-2.042511 -0.678406,-2.108093c-0.034515,-0.096008 9.504608,-0.114105 48.587067,-0.092316c46.342804,0.025818 48.666595,0.035004 49.408112,0.196899c3.027161,0.660614 5.195221,1.716797 7.271057,3.541901c2.264252,1.990906 3.68222,4.382996 4.189941,7.068512c0.142151,0.751892 0.158997,11.143402 0.158997,97.995911l0,97.154785l35.327637,0l35.327637,0l-0.030457,-120.440887z" id="path4606" fill="white"/>
 </g>
</svg>
