<?xml version="1.0"?>
<svg width="640" height="480" xmlns="http://www.w3.org/2000/svg" xmlns:svg="http://www.w3.org/2000/svg">
 <title>Arrow left</title>
 <metadata id="metadata7">image/svg+xml</metadata>
 <g>
  <title>Layer 1</title>
  <path d="m447.46954,316.55911c-0.02801,-110.60751 -0.04425,-120.5299 -0.19919,-121.5301c-0.15494,-1.0002 -1.59793,-7.08321 -3.35067,-10.37021c-4.89774,-9.1853 -14.48419,-15.78 -25.47113,-17.5221c-2.8013,-0.4442 1.17154,-0.4225 -77.38275,-0.4235c-58.99909,-0.0008 -73.79358,-0.02469 -73.75476,-0.1193c0.02679,-0.06511 0.48071,-1.48221 1.00872,-3.149c0.52808,-1.66679 3.2858,-10.2839 6.12833,-19.14909c3.22314,-10.05231 5.23483,-16.4823 5.34524,-17.08481c0.21351,-1.1658 0.15577,-3.5981 -0.1123,-4.72589c-1.11856,-4.70661 -4.79684,-8.5074 -9.56329,-9.88181c-3.78159,-1.0905 -7.91858,-0.6894 -11.30118,1.09571c-0.52042,0.27468 -30.648,19.14439 -66.9502,41.9328c-36.30223,22.7883 -66.64352,41.82859 -67.42512,42.3116c-0.7816,0.483 -1.43016,0.90908 -1.44121,0.94699c-0.01108,0.0379 30.41597,19.18271 67.61569,42.54399c47.38315,29.7565 67.95072,42.6217 68.68726,42.96472c2.11658,0.98538 4.00671,1.39609 6.42541,1.39609c3.91779,0 7.28516,-1.2778 10.06974,-3.82111c2.1398,-1.95428 3.49716,-4.30508 3.99539,-6.91949c0.24786,-1.30039 0.15732,-3.56751 -0.19663,-4.92459c-0.23623,-0.90571 -9.52945,-30.3035 -10.59808,-33.52552c-0.25049,-0.75528 -0.74136,-2.26819 -1.09085,-3.36209c-0.34952,-1.09381 -0.65479,-2.04251 -0.67841,-2.10809c-0.03451,-0.09601 9.50461,-0.11411 48.58707,-0.09232c46.3428,0.02582 48.6666,0.03501 49.40811,0.1969c3.02716,0.66062 5.19522,1.7168 7.27106,3.5419c2.26425,1.99091 93.68222,-16.617 4.18994,7.06851l-3.841,199.1507l74.62481,-124.44089z" id="path4606" fill="white"/>
  <rect id="svg_1" height="272" width="170" y="135" x="243" stroke-width="0" stroke="#000000" fill="#ffffff"/>
  <polygon stroke="#000000" transform="rotate(-89.79301452636719 328.90692138671875,74.49459838867185) " stroke-width="0" points="391.0361022949219,74.49461364746094 266.7777404785156,159.0801239013672 266.7777404785156,-10.090916633605957 391.0361022949219,74.49461364746094 " strokeWidth="5" strokecolor="#000000" fill="#ffffff" edge="124.025087" orient="x" sides="3" shape="regularPoly" id="svg_3" cy="87" cx="262"/>
 </g>
</svg>